<?xml version="1.0" encoding="UTF-8" standalone="no"?>
<!-- Created with Inkscape (http://www.inkscape.org/) -->

<svg
   width="85mm"
   height="57.5mm"
   viewBox="0 0 85 57.5"
   version="1.1"
   id="svg1"
   xml:space="preserve"
   sodipodi:docname="運転体験.svg"
   inkscape:version="1.3.2 (091e20e, 2023-11-25, custom)"
   inkscape:export-filename="運転体験.jpg"
   inkscape:export-xdpi="96"
   inkscape:export-ydpi="96"
   xmlns:inkscape="http://www.inkscape.org/namespaces/inkscape"
   xmlns:sodipodi="http://sodipodi.sourceforge.net/DTD/sodipodi-0.dtd"
   xmlns="http://www.w3.org/2000/svg"
   xmlns:svg="http://www.w3.org/2000/svg"><sodipodi:namedview
     id="namedview1"
     pagecolor="#ffffff"
     bordercolor="#000000"
     borderopacity="0.25"
     inkscape:showpageshadow="false"
     inkscape:pageopacity="0.0"
     inkscape:pagecheckerboard="0"
     inkscape:deskcolor="#d1d1d1"
     inkscape:document-units="px"
     inkscape:zoom="1.787663"
     inkscape:cx="186.55641"
     inkscape:cy="57.896817"
     inkscape:window-width="1920"
     inkscape:window-height="991"
     inkscape:window-x="-9"
     inkscape:window-y="-9"
     inkscape:window-maximized="1"
     inkscape:current-layer="layer1"
     inkscape:export-bgcolor="#e0e0e000"
     shape-rendering="crispEdges" /><defs
     id="defs1"><rect
       x="-42.793299"
       y="121.66722"
       width="72.16125"
       height="56.218648"
       id="rect24" /><rect
       x="-42.513605"
       y="118.87028"
       width="85.027209"
       height="41.954215"
       id="rect23" /><rect
       x="-372.40857"
       y="105.61135"
       width="22.34847"
       height="19.579633"
       id="rect12" /><rect
       x="-258.88625"
       y="61.705509"
       width="204.18197"
       height="15.13988"
       id="rect10" /><rect
       x="19.381859"
       y="57.552254"
       width="130.53088"
       height="26.303951"
       id="rect9" /><rect
       x="18.392988"
       y="177.20556"
       width="86.130606"
       height="16.514135"
       id="rect4" /><rect
       x="72.088647"
       y="20.469616"
       width="126.51091"
       height="14.63605"
       id="rect3" /><rect
       x="11.470896"
       y="157.23038"
       width="61.408706"
       height="13.539222"
       id="rect2" /><rect
       x="-372.40857"
       y="105.61135"
       width="22.348471"
       height="19.579634"
       id="rect12-4" /><rect
       x="-372.40857"
       y="105.61135"
       width="22.348471"
       height="19.579634"
       id="rect12-4-4" /></defs><g
     id="layer1"
     inkscape:label="layer1"><rect
       style="fill:#e6e6e6;stroke-width:0.264583"
       id="rect22"
       width="85"
       height="57.5"
       x="0"
       y="-0.16650578" /><g
       id="g22"><g
         id="g7"
         style="display:inline"
         inkscape:label="上部"><path
           d="M 72.087891,27.96875 V 27.371094 H 83.490234 V 27.96875 Z M 101.49023,26.773437 V 26.164062 H 102.08789 V 26.773437 Z M 98.490234,26.773437 V 24.96875 H 99.087891 V 26.773437 Z M 98.490234,31.566406 V 28.566406 H 99.087891 V 31.566406 Z M 97.892578,27.371094 H 100.2832 V 24.371094 H 97.892578 Z M 96.087891,27.96875 V 27.371094 H 97.283203 V 23.773437 H 98.490234 V 21.96875 H 99.087891 V 23.773437 H 100.89258 V 27.371094 H 101.49023 V 27.96875 H 106.2832 V 29.773437 H 105.68555 V 28.566406 H 103.2832 V 29.773437 H 103.89258 V 30.96875 H 104.49023 V 30.371094 H 105.08789 V 29.773437 H 105.68555 V 30.371094 H 105.08789 V 30.96875 H 104.49023 V 31.566406 H 103.89258 V 32.164062 H 103.2832 V 32.773437 H 102.68555 V 33.371094 H 102.08789 V 33.96875 H 100.89258 V 33.371094 H 99.685547 V 32.773437 H 100.2832 V 27.96875 H 97.892578 V 30.96875 H 97.283203 V 27.96875 Z M 105.68555,26.164062 H 106.89258 V 25.566406 H 107.49023 V 26.773437 H 105.68555 Z M 105.68555,26.164062 H 105.08789 V 23.164062 H 103.2832 V 24.96875 H 102.68555 V 26.164062 H 102.08789 V 24.96875 H 102.68555 V 22.566406 H 105.68555 Z M 106.2832,33.371094 H 105.68555 V 32.773437 H 105.08789 V 32.164062 H 104.49023 V 31.566406 H 105.08789 V 32.164062 H 105.68555 V 32.773437 H 106.2832 Z M 106.2832,33.371094 H 107.49023 V 33.96875 H 106.2832 Z M 103.2832,29.773437 H 102.68555 V 28.566406 H 101.49023 V 27.96875 H 100.89258 V 33.371094 H 102.08789 V 32.773437 H 102.68555 V 32.164062 H 103.2832 V 31.566406 H 103.89258 V 30.96875 H 103.2832 Z M 97.283203,30.96875 V 33.371094 H 96.685547 V 33.96875 H 96.087891 V 33.371094 H 96.685547 V 30.96875 Z M 120.08789,28.566406 V 27.96875 H 120.68555 V 28.566406 Z M 130.89258,30.96875 H 131.49023 V 31.566406 H 130.89258 Z M 130.89258,30.96875 H 130.2832 V 30.371094 H 129.68555 V 29.773437 H 129.08789 V 28.566406 H 128.49023 V 27.371094 H 127.89258 V 26.164062 H 127.2832 V 30.96875 H 129.68555 V 31.566406 H 127.2832 V 33.96875 H 126.68555 V 31.566406 H 124.2832 V 30.96875 H 126.68555 V 26.164062 H 126.08789 V 27.96875 H 125.49023 V 29.164062 H 124.89258 V 29.773437 H 124.2832 V 30.371094 H 123.68555 V 30.96875 H 123.08789 V 31.566406 H 122.49023 V 33.96875 H 121.89258 V 26.773437 H 121.2832 V 27.96875 H 120.68555 V 26.773437 H 121.2832 V 25.566406 H 121.89258 V 23.773437 H 122.49023 V 30.96875 H 123.08789 V 30.371094 H 123.68555 V 29.773437 H 124.2832 V 29.164062 H 124.89258 V 27.96875 H 125.49023 V 26.164062 H 126.08789 V 25.566406 H 123.08789 V 24.96875 H 126.68555 V 21.96875 H 127.2832 V 24.96875 H 131.49023 V 25.566406 H 127.89258 V 26.164062 H 128.49023 V 27.371094 H 129.08789 V 28.566406 H 129.68555 V 29.773437 H 130.2832 V 30.371094 H 130.89258 Z M 122.49023,23.773437 V 21.96875 H 123.08789 V 23.773437 Z M 153.08789,29.164062 H 154.2832 V 27.96875 H 153.08789 Z M 150.68555,29.164062 H 152.49023 V 27.96875 H 150.68555 Z M 147.68555,32.164062 V 30.371094 H 148.2832 V 32.164062 Z M 146.49023,32.164062 V 30.371094 H 147.08789 V 32.164062 Z M 145.2832,24.96875 H 147.08789 V 23.164062 H 145.2832 Z M 145.2832,26.773437 H 147.08789 V 25.566406 H 145.2832 Z M 145.2832,29.164062 H 147.08789 V 27.371094 H 145.2832 Z M 145.2832,32.773437 V 30.371094 H 145.89258 V 32.773437 Z M 144.68555,29.773437 V 22.566406 H 149.49023 V 23.164062 H 147.68555 V 24.96875 H 149.49023 V 25.566406 H 150.08789 V 26.164062 H 149.49023 V 25.566406 H 147.68555 V 26.773437 H 149.49023 V 27.371094 H 147.68555 V 29.164062 H 149.49023 V 32.773437 H 148.89258 V 29.773437 Z M 144.08789,32.773437 V 30.371094 H 144.68555 V 32.773437 Z M 154.89258,33.371094 H 154.2832 V 32.773437 H 153.68555 V 31.566406 H 153.08789 V 30.371094 H 152.49023 V 29.773437 H 150.08789 V 27.371094 H 152.49023 V 26.164062 H 150.68555 V 25.566406 H 150.08789 V 24.96875 H 150.68555 V 25.566406 H 154.89258 V 26.164062 H 153.08789 V 27.371094 H 154.89258 V 29.773437 H 153.08789 V 30.371094 H 153.68555 V 31.566406 H 154.2832 V 32.773437 H 154.89258 Z M 154.89258,33.371094 H 155.49023 V 33.96875 H 154.89258 Z M 154.89258,25.566406 V 24.96875 H 155.49023 V 25.566406 Z M 154.89258,24.96875 H 154.2832 V 24.371094 H 153.68555 V 23.773437 H 153.08789 V 23.164062 H 152.49023 V 23.773437 H 151.89258 V 24.371094 H 151.2832 V 24.96875 H 150.68555 V 24.371094 H 151.2832 V 23.773437 H 151.89258 V 22.566406 H 152.49023 V 21.96875 H 153.08789 V 23.164062 H 153.68555 V 23.773437 H 154.2832 V 24.371094 H 154.89258 Z M 152.49023,30.371094 V 31.566406 H 151.89258 V 32.773437 H 151.2832 V 33.371094 H 150.68555 V 33.96875 H 149.49023 V 33.371094 H 150.68555 V 32.773437 H 151.2832 V 31.566406 H 151.89258 V 30.371094 Z M 148.2832,33.371094 V 32.773437 H 148.89258 V 33.371094 Z M 148.2832,33.371094 V 33.96875 H 147.08789 V 33.371094 Z M 169.89258,22.566406 V 21.96875 H 170.49023 V 22.566406 H 171.08789 V 23.164062 H 170.49023 V 22.566406 Z M 168.08789,27.371094 V 26.773437 H 172.2832 V 26.164062 H 172.89258 V 26.773437 H 174.68555 V 26.164062 H 175.2832 V 26.773437 H 179.49023 V 27.371094 H 175.89258 V 27.96875 H 175.2832 V 27.371094 H 172.2832 V 28.566406 H 171.68555 V 27.371094 Z M 168.08789,30.96875 V 30.371094 H 169.2832 V 30.96875 Z M 172.2832,31.566406 V 32.164062 H 171.68555 V 32.773437 H 171.08789 V 33.371094 H 169.89258 V 33.96875 H 168.68555 V 33.371094 H 169.89258 V 32.773437 H 171.08789 V 32.164062 H 171.68555 V 31.566406 Z M 172.2832,31.566406 V 30.96875 H 172.89258 V 31.566406 Z M 172.89258,30.96875 V 29.773437 H 170.49023 V 29.164062 H 171.08789 V 28.566406 H 171.68555 V 29.164062 H 176.49023 V 32.164062 H 175.89258 V 29.773437 H 173.49023 V 30.96875 Z M 175.2832,33.371094 V 32.164062 H 175.89258 V 33.371094 Z M 175.2832,33.371094 V 33.96875 H 174.08789 V 33.371094 Z M 178.2832,30.371094 H 179.49023 V 30.96875 H 178.2832 Z M 178.2832,30.371094 H 177.68555 V 29.773437 H 177.08789 V 29.164062 H 176.49023 V 28.566406 H 177.08789 V 29.164062 H 177.68555 V 29.773437 H 178.2832 Z M 176.49023,28.566406 H 175.89258 V 27.96875 H 176.49023 Z M 174.68555,26.164062 H 174.08789 V 24.96875 H 173.49023 V 26.164062 H 172.89258 V 24.96875 H 169.2832 V 24.371094 H 171.08789 V 23.164062 H 171.68555 V 24.371094 H 173.49023 V 21.96875 H 174.08789 V 24.371094 H 175.2832 V 23.773437 H 175.89258 V 24.371094 H 178.2832 V 24.96875 H 174.68555 Z M 177.08789,22.566406 V 23.164062 H 176.49023 V 23.773437 H 175.89258 V 23.164062 H 176.49023 V 22.566406 Z M 177.08789,22.566406 V 21.96875 H 177.68555 V 22.566406 Z M 170.49023,29.773437 V 30.371094 H 169.2832 V 29.773437 Z"
           id="text2"
           style="font-family:'JF Dot Ayu Gothic 20';-inkscape-font-specification:'JF Dot Ayu Gothic 20, ';white-space:pre"
           inkscape:label="乗車券"
           transform="matrix(0.22450223,0,0,0.35397652,2.9678536,-1.9900205)"
           aria-label="一　般　体　験　券" /></g><g
         id="g9"
         inkscape:label="発券情報"
         transform="translate(1.6280566,0.14800515)"><text
           xml:space="preserve"
           style="font-style:normal;font-variant:normal;font-weight:normal;font-stretch:normal;font-size:2.59594px;font-family:'JF Dot Ayu Gothic 20';-inkscape-font-specification:'JF Dot Ayu Gothic 20, ';display:inline;fill:#000000;stroke-width:0.216327"
           x="54.516319"
           y="35.768875"
           id="text5"
           transform="scale(0.78363551,1.2761035)"
           inkscape:label="発券駅名"><tspan
             sodipodi:role="line"
             id="tspan5"
             style="text-align:end;text-anchor:end;stroke-width:0.216327"
             x="54.516319"
             y="35.768875">ギャラリー駅</tspan></text><text
           xml:space="preserve"
           style="font-style:normal;font-variant:normal;font-weight:normal;font-stretch:normal;font-size:4.7707px;font-family:'JF Dot Ayu Gothic 20';-inkscape-font-specification:'JF Dot Ayu Gothic 20, ';fill:#000000;stroke-width:0.397557"
           x="40.009377"
           y="50.110542"
           id="text7"
           transform="scale(1.0861958,0.92064435)"
           inkscape:label="マシーン番号"><tspan
             sodipodi:role="line"
             id="tspan7"
             style="stroke-width:0.397557"
             x="40.009377"
             y="50.110542">MK1</tspan></text><text
           xml:space="preserve"
           style="font-style:normal;font-variant:normal;font-weight:normal;font-stretch:normal;font-size:2.79342px;font-family:'JF Dot Ayu Gothic 20';-inkscape-font-specification:'JF Dot Ayu Gothic 20, ';fill:#000000;stroke-width:0.232785"
           x="60.9743"
           y="38.842247"
           id="text7-5"
           transform="scale(0.84966821,1.17693)"
           inkscape:label="発行"><tspan
             sodipodi:role="line"
             id="tspan7-4"
             style="stroke-width:0.232785"
             x="60.9743"
             y="38.842247">発行</tspan></text><g
           id="g8"
           inkscape:label="左下情報"><text
             xml:space="preserve"
             style="font-style:normal;font-variant:normal;font-weight:normal;font-stretch:normal;font-size:5.38377px;font-family:'JF Dot Ayu Gothic 20';-inkscape-font-specification:'JF Dot Ayu Gothic 20, ';text-align:start;text-anchor:start;fill:#000000;stroke-width:0.448647"
             x="5.7679868"
             y="45.478912"
             id="text25"
             transform="scale(0.88350381,1.131857)"><tspan
               sodipodi:role="line"
               id="tspan25"
               style="text-align:start;text-anchor:start;stroke-width:0.448647"
               x="5.7679868"
               y="45.478912">000000-00</tspan></text><text
             xml:space="preserve"
             style="font-style:normal;font-variant:normal;font-weight:normal;font-stretch:normal;font-size:3.5335px;font-family:'JF Dot Ayu Gothic 20';-inkscape-font-specification:'JF Dot Ayu Gothic 20, ';text-align:start;text-anchor:start;fill:#000000;stroke-width:0.294458"
             x="7.0357032"
             y="36.032932"
             id="text25-82"
             transform="scale(0.77497781,1.2903595)"><tspan
               sodipodi:role="line"
               id="tspan25-6"
               style="text-align:start;text-anchor:start;stroke-width:0.294458"
               x="7.0357032"
               y="36.032932">0000.00.00</tspan></text></g><text
           xml:space="preserve"
           style="font-style:normal;font-variant:normal;font-weight:normal;font-stretch:normal;font-size:2.53297px;font-family:'JF Dot Ayu Gothic 20';-inkscape-font-specification:'JF Dot Ayu Gothic 20, ';text-align:start;text-anchor:start;fill:#000000;stroke-width:0.211081"
           x="4.9719939"
           y="37.770405"
           id="text14-9"
           transform="scale(1.0402452,0.96131182)"><tspan
             sodipodi:role="line"
             id="tspan14-1"
             style="stroke-width:0.211081"
             x="4.9719939"
             y="37.770405">5F 501教室で体験ができます。</tspan></text><text
           xml:space="preserve"
           style="font-style:normal;font-variant:normal;font-weight:normal;font-stretch:normal;font-size:2.53297px;font-family:'JF Dot Ayu Gothic 20';-inkscape-font-specification:'JF Dot Ayu Gothic 20, ';text-align:start;text-anchor:start;fill:#000000;stroke-width:0.211081"
           x="5.0981479"
           y="42.003342"
           id="text14-9-2"
           transform="scale(1.0402452,0.96131182)"><tspan
             sodipodi:role="line"
             id="tspan14-1-0"
             style="stroke-width:0.211081"
             x="5.0981479"
             y="42.003342">時間に指定場所にいない場合は無効</tspan></text></g><path
         id="rect11"
         style="stroke-width:0.44778"
         d="M 6.0182867,24.741934 H 81.793807 V 25.296953 H 6.0182867 Z" /><g
         id="g13"
         transform="translate(-1.4940323,0.14800515)"><path
           d="M 13.865866,30.472372 H 14.676695 V 29.836752 H 13.865866 Z M 13.865866,31.266121 H 14.676695 V 30.630501 H 13.865866 Z M 13.776165,31.424251 V 29.678622 H 14.766396 V 32.69549 H 14.497293 V 32.53736 H 14.676695 V 31.424251 Z M 13.776165,31.424251 V 31.90174 H 13.686464 V 32.218 H 13.596762 V 32.379231 H 13.505302 V 32.53736 H 13.415601 V 32.69549 H 13.3259 V 32.53736 H 13.415601 V 32.379231 H 13.505302 V 32.218 H 13.596762 V 31.90174 H 13.686464 V 31.424251 Z"
           id="text13"
           style="font-size:2.39131px;font-family:'JF Dot Ayu Gothic 20';-inkscape-font-specification:'JF Dot Ayu Gothic 20, ';text-align:center;text-anchor:middle;stroke-width:0.199276"
           aria-label="月" /><path
           d="M 22.031075,31.266122 H 22.841904 V 30.156112 H 22.031075 Z M 22.031075,32.537361 H 22.841904 V 31.424251 H 22.031075 Z M 21.941374,32.69549 V 29.994881 H 22.931606 V 32.69549 Z"
           id="text13-0"
           style="font-size:2.39131px;font-family:'JF Dot Ayu Gothic 20';-inkscape-font-specification:'JF Dot Ayu Gothic 20, ';text-align:center;text-anchor:middle;stroke-width:0.199276"
           aria-label="日" /><text
           xml:space="preserve"
           style="font-style:normal;font-variant:normal;font-weight:normal;font-stretch:normal;font-size:2.85687px;font-family:'JF Dot Ayu Gothic 20';-inkscape-font-specification:'JF Dot Ayu Gothic 20, ';text-align:start;text-anchor:start;fill:#000000;stroke-width:0.238074"
           x="29.606827"
           y="29.017771"
           id="text13-0-8"
           transform="scale(0.89980354,1.1113537)"><tspan
             sodipodi:role="line"
             id="tspan13-8-9"
             style="text-align:start;text-anchor:start;stroke-width:0.238074"
             x="29.606827"
             y="29.017771">回限り有効</tspan></text><text
           xml:space="preserve"
           style="font-style:normal;font-variant:normal;font-weight:normal;font-stretch:normal;font-size:4.80493px;font-family:'JF Dot Ayu Gothic 20';-inkscape-font-specification:'JF Dot Ayu Gothic 20, ';text-align:end;text-anchor:end;fill:#e6e6e6;stroke-width:0.400411"
           x="15.00947"
           y="27.663486"
           id="text25-8"
           transform="scale(0.84465971,1.1839087)"><tspan
             sodipodi:role="line"
             id="tspan25-9"
             style="fill:#000000;stroke-width:0.400411"
             x="15.00947"
             y="27.663486">00</tspan></text><text
           xml:space="preserve"
           style="font-style:normal;font-variant:normal;font-weight:normal;font-stretch:normal;font-size:4.80493px;font-family:'JF Dot Ayu Gothic 20';-inkscape-font-specification:'JF Dot Ayu Gothic 20, ';text-align:end;text-anchor:end;fill:#e6e6e6;stroke-width:0.400411"
           x="24.503735"
           y="27.663486"
           id="text25-8-5"
           transform="scale(0.84465972,1.1839087)"><tspan
             sodipodi:role="line"
             id="tspan25-9-2"
             style="fill:#000000;stroke-width:0.400411"
             x="24.503735"
             y="27.663486">00</tspan></text><text
           xml:space="preserve"
           style="font-style:normal;font-variant:normal;font-weight:normal;font-stretch:normal;font-size:4.80493px;font-family:'JF Dot Ayu Gothic 20';-inkscape-font-specification:'JF Dot Ayu Gothic 20, ';text-align:end;text-anchor:end;fill:#e6e6e6;stroke-width:0.400411"
           x="31.299038"
           y="27.663486"
           id="text25-8-5-1"
           transform="scale(0.84465972,1.1839087)"><tspan
             sodipodi:role="line"
             id="tspan25-9-2-1"
             style="fill:#000000;stroke-width:0.400411"
             x="31.299038"
             y="27.663486">0</tspan></text></g></g><text
       xml:space="preserve"
       transform="scale(0.26458333)"
       id="text22"
       style="font-style:normal;font-variant:normal;font-weight:normal;font-stretch:normal;font-family:'JF Dot Ayu Gothic 20';-inkscape-font-specification:'JF Dot Ayu Gothic 20, ';text-align:end;white-space:pre;shape-inside:url(#rect23);display:inline;fill:#e6e6e6" /><text
       xml:space="preserve"
       style="font-style:normal;font-variant:normal;font-weight:normal;font-stretch:normal;font-size:5.77149px;font-family:'JF Dot Ayu Gothic 20';-inkscape-font-specification:'JF Dot Ayu Gothic 20, ';text-align:start;text-anchor:start;fill:#000000;stroke-width:0.480957"
       x="50.4832"
       y="19.314865"
       id="text26"
       transform="scale(0.8394743,1.1912217)"><tspan
         sodipodi:role="line"
         id="tspan26"
         style="text-align:center;text-anchor:middle;stroke-width:0.480957"
         x="50.4832"
         y="19.314865">501教室 BVE運転体験 00:00-</tspan></text></g></svg>
